<?xml version="1.0" standalone="no"?>
<!DOCTYPE svg PUBLIC "-//W3C//DTD SVG 20010904//EN"
 "http://www.w3.org/TR/2001/REC-SVG-20010904/DTD/svg10.dtd">
<svg version="1.0" xmlns="http://www.w3.org/2000/svg"
 width="200.000000pt" height="200.000000pt" viewBox="0 0 200.000000 200.000000"
 preserveAspectRatio="xMidYMid meet">

<g transform="translate(0.000000,200.000000) scale(0.100000,-0.100000)"
fill="#000000" stroke="none">
<path d="M280 1675 c0 -148 -15 -137 175 -133 l129 3 11 42 c5 23 13 45 18 49
4 4 7 43 7 86 l0 78 -170 0 -170 0 0 -125z"/>
<path d="M916 1703 c-4 -4 -60 -35 -124 -69 l-117 -61 -3 -79 c-2 -43 -8 -84
-14 -91 -6 -8 -32 -13 -64 -13 l-54 0 0 -100 0 -100 60 0 c33 0 60 -3 60 -7 1
-5 2 -114 4 -243 2 -213 5 -240 24 -291 36 -91 98 -133 197 -131 87 2 248 21
259 32 4 4 5 43 1 84 l-7 76 -53 -6 c-129 -15 -136 0 -133 273 l3 208 95 5 95
5 3 98 3 97 -96 0 c-69 0 -95 3 -96 13 0 6 0 78 1 160 1 138 0 147 -18 147
-10 0 -22 -3 -26 -7z"/>
<path d="M1228 1433 c-16 -4 -18 -19 -18 -134 0 -71 2 -129 5 -129 3 0 23 9
45 20 75 38 153 22 204 -42 14 -18 31 -39 37 -46 8 -9 23 -12 43 -8 17 3 82
12 144 20 62 8 116 17 119 20 12 12 -17 82 -55 131 -46 61 -124 117 -194 139
-90 28 -273 44 -330 29z"/>
<path d="M310 1403 c-1 -8 0 -862 0 -875 0 -5 72 -8 160 -8 l160 0 0 53 c0 28
-5 70 -11 92 -5 22 -12 134 -14 250 l-4 210 -53 5 -53 5 -3 138 -3 137 -89 0
c-50 0 -90 -3 -90 -7z"/>
<path d="M1015 1064 c-4 -36 -4 -116 1 -178 l9 -111 35 1 c19 0 51 3 70 7 57
12 62 2 72 -130 4 -65 11 -129 14 -142 l5 -24 127 6 c136 7 215 28 304 79 84
50 168 165 168 233 0 22 -5 23 -137 36 -76 8 -141 14 -146 14 -4 0 -24 -22
-45 -50 -110 -145 -277 -119 -338 52 -23 65 -14 174 21 256 6 15 -1 17 -73 17
l-80 0 -7 -66z"/>
<path d="M45 289 c-9 -44 -15 -83 -12 -86 11 -10 27 8 27 31 0 32 19 46 63 46
23 0 36 4 32 10 -3 6 -22 10 -41 10 -31 0 -35 3 -32 23 2 18 10 23 46 25 61 5
52 22 -12 22 l-53 0 -18 -81z"/>
<path d="M345 333 c-4 -21 -11 -51 -16 -67 -12 -40 -11 -68 3 -64 12 4 49 148
42 160 -11 18 -24 6 -29 -29z"/>
<path d="M562 353 c-12 -24 -35 -144 -28 -150 11 -11 26 10 26 36 0 15 6 36
14 47 14 18 16 16 38 -33 13 -29 28 -53 34 -53 12 0 29 53 39 123 5 31 4 47
-4 47 -6 0 -13 -11 -16 -25 -3 -14 -7 -37 -10 -51 -8 -36 -25 -26 -44 26 -18
49 -35 60 -49 33z"/>
<path d="M885 290 c-48 -83 -53 -110 -12 -72 30 29 83 30 92 2 13 -42 25 -19
18 38 -16 137 -33 143 -98 32z m65 0 c0 -23 -4 -30 -20 -30 -22 0 -25 12 -10
41 16 28 30 23 30 -11z"/>
<path d="M1185 290 c-10 -44 -15 -83 -11 -87 10 -11 24 16 31 59 4 21 11 38
17 38 5 0 19 -22 31 -50 21 -51 42 -64 50 -32 16 59 29 144 23 149 -10 11 -23
-14 -30 -58 -3 -22 -11 -39 -16 -39 -5 0 -19 23 -31 50 -12 28 -27 50 -34 50
-7 0 -19 -34 -30 -80z"/>
<path d="M1542 363 c-18 -7 -42 -58 -42 -90 0 -66 73 -99 115 -53 24 26 13 37
-17 16 -31 -22 -45 -20 -63 8 -14 22 -14 28 -1 60 18 43 57 57 85 32 24 -21
38 -4 15 18 -15 15 -65 20 -92 9z"/>
<path d="M1836 358 c-10 -34 -26 -122 -26 -139 0 -17 7 -19 59 -19 33 0 63 5
66 10 4 6 -12 10 -40 10 -31 0 -47 5 -51 15 -10 25 16 45 57 45 22 0 39 5 39
10 0 6 -18 10 -41 10 -36 0 -40 2 -37 23 3 19 10 22 51 25 68 4 58 22 -13 22
-40 0 -62 -4 -64 -12z"/>
</g>
</svg>
