<svg width="24" height="24" viewBox="0 0 245 224" fill="none" xmlns="http://www.w3.org/2000/svg">
<path d="M227.878 140.174L195.042 120.536L207.684 99.3493C210.734 94.0591 212.331 88.171 212.34 82.1914V48.6052C212.365 39.1614 209.373 29.9164 203.73 22.0055C198.088 14.0946 190.041 7.86201 180.577 4.07321C171.114 0.284414 160.646 -0.89571 150.459 0.677754C140.272 2.25122 130.81 6.50977 123.234 12.9305L134.332 23.8819C139.582 19.4451 146.133 16.505 153.184 15.422C160.235 14.3389 167.478 15.16 174.026 17.7847C180.574 20.4093 186.141 24.7234 190.046 30.198C193.951 35.6726 196.024 42.0697 196.009 48.6052V82.1914C196.008 85.6733 195.095 89.1043 193.348 92.1982L173.489 125.48L218.936 152.664C221.936 154.458 224.398 156.91 226.098 159.796C227.798 162.681 228.682 165.909 228.67 169.187V194.146H191.927V209.073H245V169.186C245.016 163.429 243.459 157.76 240.468 152.693C237.478 147.627 233.15 143.323 227.878 140.174V140.174Z" fill="white"/>
<path d="M154.392 155.101L121.557 135.463L134.199 114.276C137.248 108.986 138.845 103.098 138.854 97.1185V63.5323C138.843 50.6586 133.247 38.3144 123.292 29.2078C113.337 20.1013 99.8373 14.9759 85.7538 14.9563C56.5039 14.9563 32.7078 36.7477 32.7078 63.5323V97.1185C32.6766 103.095 34.2567 108.987 37.3083 114.273L50.0193 135.574L17.3748 155.101C12.1084 158.245 7.78415 162.542 4.79456 167.6C1.80496 172.659 0.244632 178.32 0.255159 184.07L0 224H171.514V184.113C171.531 178.356 169.973 172.687 166.983 167.62C163.992 162.554 159.664 158.25 154.392 155.101V155.101ZM155.184 209.073H16.4251L16.5833 184.113C16.5709 180.836 17.4549 177.608 19.1547 174.722C20.8546 171.837 23.3165 169.385 26.3166 167.59L71.5725 140.521L51.6441 107.125C49.9165 104.027 49.023 100.596 49.0379 97.1185V63.5323C49.0379 54.6247 52.909 46.0819 59.7997 39.7832C66.6903 33.4846 76.036 29.946 85.7808 29.946C95.5256 29.946 104.871 33.4846 111.762 39.7832C118.653 46.0819 122.524 54.6247 122.524 63.5323V97.1185C122.522 100.6 121.61 104.031 119.862 107.125L100.003 140.407L145.451 167.591C148.451 169.386 150.913 171.837 152.612 174.723C154.312 177.608 155.196 180.837 155.184 184.114V209.073Z" fill="white"/>
</svg>
