<svg width="36" height="36" viewBox="0 0 36 36" fill="none" xmlns="http://www.w3.org/2000/svg">
<g clip-path="url(#clip0_4101_7283)">
<path d="M12 16.14H11.13C9.94272 16.0971 8.75932 16.2986 7.65322 16.7321C6.54711 17.1656 5.5419 17.8218 4.69996 18.66L4.45996 18.94V27.22H8.53996V22.52L9.08996 21.9L9.33996 21.61C10.6419 20.2725 12.2627 19.2883 14.05 18.75C13.1552 18.0691 12.4494 17.1706 12 16.14Z" fill="#0061A6"/>
<path d="M31.3399 18.63C30.498 17.7918 29.4928 17.1356 28.3867 16.7021C27.2806 16.2686 26.0972 16.0671 24.9099 16.11C24.5458 16.111 24.182 16.1311 23.8199 16.17C23.362 17.1369 22.6756 17.9778 21.8199 18.62C23.7279 19.1478 25.4563 20.1849 26.8199 21.62L27.0699 21.9L27.6099 22.52V27.23H31.5499V18.91L31.3399 18.63Z" fill="#0061A6"/>
<path d="M11.1 14.19H11.41C11.266 12.9532 11.483 11.7012 12.0348 10.5851C12.5867 9.46894 13.4498 8.53639 14.52 7.89999C14.1321 7.30734 13.5969 6.82559 12.9668 6.50193C12.3367 6.17827 11.6334 6.02379 10.9257 6.05362C10.218 6.08344 9.53021 6.29654 8.92961 6.67207C8.32902 7.04759 7.83625 7.57265 7.49955 8.19584C7.16285 8.81902 6.99377 9.51897 7.00886 10.2271C7.02396 10.9353 7.22271 11.6274 7.58565 12.2357C7.9486 12.844 8.46329 13.3476 9.07934 13.6971C9.69539 14.0467 10.3917 14.2303 11.1 14.23V14.19Z" fill="#0061A6"/>
<path d="M24.43 13.44C24.4421 13.6698 24.4421 13.9002 24.43 14.13C24.6219 14.1604 24.8157 14.1771 25.01 14.18H25.2C25.9052 14.1424 26.5886 13.9228 27.1838 13.5427C27.779 13.1625 28.2656 12.6347 28.5962 12.0107C28.9269 11.3867 29.0903 10.6877 29.0706 9.98173C29.0509 9.27579 28.8488 8.58698 28.4838 7.98235C28.1189 7.37773 27.6036 6.8779 26.9882 6.53152C26.3728 6.18515 25.6781 6.00403 24.9719 6.00581C24.2657 6.00759 23.572 6.1922 22.9583 6.54166C22.3446 6.89113 21.8319 7.39354 21.47 8C22.3751 8.59093 23.1193 9.3973 23.6359 10.3468C24.1525 11.2962 24.4254 12.3591 24.43 13.44Z" fill="#0061A6"/>
<path d="M17.87 17.92C20.3387 17.92 22.34 15.9187 22.34 13.45C22.34 10.9813 20.3387 8.98001 17.87 8.98001C15.4013 8.98001 13.4 10.9813 13.4 13.45C13.4 15.9187 15.4013 17.92 17.87 17.92Z" fill="#0061A6"/>
<path d="M18.11 20.3C16.804 20.2473 15.5009 20.4593 14.279 20.9233C13.0572 21.3873 11.9418 22.0937 11 23L10.75 23.28V29.61C10.7539 29.8162 10.7984 30.0196 10.8809 30.2086C10.9634 30.3976 11.0824 30.5685 11.231 30.7115C11.3796 30.8545 11.5549 30.9668 11.7469 31.0421C11.9389 31.1173 12.1438 31.154 12.35 31.15H23.84C24.0462 31.154 24.2511 31.1173 24.4431 31.0421C24.6351 30.9668 24.8104 30.8545 24.959 30.7115C25.1076 30.5685 25.2266 30.3976 25.3091 30.2086C25.3916 30.0196 25.4361 29.8162 25.44 29.61V23.3L25.2 23C24.2643 22.0909 23.1528 21.3825 21.9337 20.9183C20.7145 20.454 19.4134 20.2436 18.11 20.3Z" fill="#0061A6"/>
</g>
<defs>
<clipPath id="clip0_4101_7283">
<rect width="36" height="36" fill="white"/>
</clipPath>
</defs>
</svg>
